<svg width="1920" height="1080" viewBox="0 0 1920 1080" fill="none" xmlns="http://www.w3.org/2000/svg">
  <!-- Background gradient -->
  <defs>
    <linearGradient id="backgroundGradient" x1="0%" y1="0%" x2="100%" y2="100%">
      <stop offset="0%" style="stop-color:#f8fafc;stop-opacity:1" />
      <stop offset="50%" style="stop-color:#e2e8f0;stop-opacity:1" />
      <stop offset="100%" style="stop-color:#cbd5e1;stop-opacity:1" />
    </linearGradient>
    <linearGradient id="medicalBlue" x1="0%" y1="0%" x2="100%" y2="100%">
      <stop offset="0%" style="stop-color:#3b82f6;stop-opacity:0.1" />
      <stop offset="100%" style="stop-color:#1e40af;stop-opacity:0.05" />
    </linearGradient>
  </defs>
  
  <!-- Main background -->
  <rect width="1920" height="1080" fill="url(#backgroundGradient)"/>
  
  <!-- Subtle medical cross pattern -->
  <g opacity="0.03">
    <pattern id="crossPattern" x="0" y="0" width="120" height="120" patternUnits="userSpaceOnUse">
      <rect x="50" y="30" width="20" height="60" fill="#3b82f6"/>
      <rect x="30" y="50" width="60" height="20" fill="#3b82f6"/>
    </pattern>
    <rect width="1920" height="1080" fill="url(#crossPattern)"/>
  </g>
  
  <!-- Orthopedic spine illustration -->
  <g transform="translate(1400, 200)" opacity="0.08">
    <!-- Spine vertebrae -->
    <ellipse cx="50" cy="50" rx="25" ry="15" fill="#3b82f6"/>
    <ellipse cx="50" cy="80" rx="28" ry="18" fill="#3b82f6"/>
    <ellipse cx="50" cy="115" rx="30" ry="20" fill="#3b82f6"/>
    <ellipse cx="50" cy="155" rx="32" ry="22" fill="#3b82f6"/>
    <ellipse cx="50" cy="200" rx="30" ry="20" fill="#3b82f6"/>
    <ellipse cx="50" cy="240" rx="28" ry="18" fill="#3b82f6"/>
    <ellipse cx="50" cy="275" rx="25" ry="15" fill="#3b82f6"/>
    
    <!-- Connecting line -->
    <line x1="50" y1="50" x2="50" y2="275" stroke="#3b82f6" stroke-width="3" opacity="0.5"/>
  </g>
  
  <!-- Bone structure illustration -->
  <g transform="translate(100, 300)" opacity="0.06">
    <!-- Femur bone outline -->
    <path d="M50 50 Q60 60 70 80 L75 200 Q75 220 65 230 L35 230 Q25 220 25 200 L30 80 Q40 60 50 50 Z" 
          fill="none" stroke="#3b82f6" stroke-width="2"/>
    <!-- Joint circles -->
    <circle cx="50" cy="50" r="15" fill="none" stroke="#3b82f6" stroke-width="2"/>
    <circle cx="50" cy="230" r="20" fill="none" stroke="#3b82f6" stroke-width="2"/>
  </g>
  
  <!-- Medical equipment silhouettes -->
  <g transform="translate(1600, 600)" opacity="0.04">
    <!-- Stethoscope -->
    <path d="M20 20 Q30 10 40 20 Q50 30 40 40 L30 50 Q20 60 10 50 Q0 40 10 30 L20 20 Z" 
          fill="#3b82f6"/>
    <path d="M25 50 Q25 70 25 90 Q25 110 40 110 Q55 110 55 90 Q55 70 55 50" 
          fill="none" stroke="#3b82f6" stroke-width="3"/>
    <circle cx="40" cy="110" r="8" fill="none" stroke="#3b82f6" stroke-width="2"/>
  </g>
  
  <!-- Subtle geometric medical elements -->
  <g opacity="0.02">
    <!-- DNA helix pattern -->
    <g transform="translate(300, 100)">
      <path d="M0 0 Q50 25 100 0 Q150 -25 200 0 Q250 25 300 0" 
            fill="none" stroke="#3b82f6" stroke-width="2"/>
      <path d="M0 50 Q50 75 100 50 Q150 25 200 50 Q250 75 300 50" 
            fill="none" stroke="#3b82f6" stroke-width="2"/>
      <!-- Connecting lines -->
      <line x1="25" y1="12" x2="25" y2="38" stroke="#3b82f6" stroke-width="1"/>
      <line x1="75" y1="-12" x2="75" y2="62" stroke="#3b82f6" stroke-width="1"/>
      <line x1="125" y1="12" x2="125" y2="38" stroke="#3b82f6" stroke-width="1"/>
      <line x1="175" y1="-12" x2="175" y2="62" stroke="#3b82f6" stroke-width="1"/>
      <line x1="225" y1="12" x2="225" y2="38" stroke="#3b82f6" stroke-width="1"/>
      <line x1="275" y1="-12" x2="275" y2="62" stroke="#3b82f6" stroke-width="1"/>
    </g>
  </g>
  
  <!-- Overlay gradient for better text readability -->
  <rect width="1920" height="1080" fill="url(#medicalBlue)"/>
</svg>