<svg xmlns="http://www.w3.org/2000/svg" viewBox="0 0 32 32" width="32" height="32">
  <defs>
    <linearGradient id="toothGradient" x1="0%" y1="0%" x2="100%" y2="100%">
      <stop offset="0%" style="stop-color:#3b82f6;stop-opacity:1" />
      <stop offset="100%" style="stop-color:#1d4ed8;stop-opacity:1" />
    </linearGradient>
  </defs>
  
  <!-- Background circle -->
  <circle cx="16" cy="16" r="15" fill="#f8fafc" stroke="#e2e8f0" stroke-width="2"/>
  
  <!-- Tooth shape -->
  <path d="M16 6c-3 0-5 2-5 4.5v6c0 3 1.5 5.5 3 7 0.5 0.5 1.2 0.8 2 0.8s1.5-0.3 2-0.8c1.5-1.5 3-4 3-7v-6c0-2.5-2-4.5-5-4.5z" fill="url(#toothGradient)"/>
  
  <!-- Tooth highlight -->
  <ellipse cx="14" cy="12" rx="1.5" ry="2" fill="#60a5fa" opacity="0.6"/>
  
  <!-- Small medical cross -->
  <g transform="translate(22,22)">
    <rect x="-1" y="-3" width="2" height="6" fill="#ef4444" rx="1"/>
    <rect x="-3" y="-1" width="6" height="2" fill="#ef4444" rx="1"/>
  </g>
</svg>